<svg width="350" height="788" viewBox="0 0 350 788" fill="none" xmlns="http://www.w3.org/2000/svg">
<path fill-rule="evenodd" clip-rule="evenodd" d="M160 402C143.431 402 130 415.431 130 432V443.84C55.1564 463.698 0 531.908 0 613C0 709.65 78.3502 788 175 788C271.65 788 350 709.65 350 613C350 531.908 294.844 463.698 220 443.84V432C220 415.431 206.569 402 190 402H160Z" fill="#C6A05F"/>
<circle cx="175" cy="387" r="9" fill="#C6A05F"/>
<circle cx="175" cy="414" r="9" fill="#C6A05F"/>
<circle cx="175" cy="333" r="9" fill="#C6A05F"/>
<circle cx="175" cy="360" r="9" fill="#C6A05F"/>
<circle cx="175" cy="279" r="9" fill="#C6A05F"/>
<circle cx="175" cy="306" r="9" fill="#C6A05F"/>
<circle cx="175" cy="225" r="9" fill="#C6A05F"/>
<circle cx="175" cy="252" r="9" fill="#C6A05F"/>
<circle cx="175" cy="171" r="9" fill="#C6A05F"/>
<circle cx="175" cy="198" r="9" fill="#C6A05F"/>
<circle cx="175" cy="117" r="9" fill="#C6A05F"/>
<circle cx="175" cy="144" r="9" fill="#C6A05F"/>
<circle cx="175" cy="63" r="9" fill="#C6A05F"/>
<circle cx="175" cy="90" r="9" fill="#C6A05F"/>
<circle cx="175" cy="9" r="9" fill="#C6A05F"/>
<circle cx="175" cy="36" r="9" fill="#C6A05F"/>
<circle cx="184.5" cy="543.5" r="60.5" fill="white"/>
<circle cx="285" cy="604" r="20" fill="white"/>
<circle cx="164" cy="726" r="20" fill="white"/>
<circle cx="245" cy="685" r="40" fill="white"/>
<circle cx="86" cy="644" r="40" fill="white"/>
</svg>
