<svg width="350" height="896" viewBox="0 0 350 896" fill="none" xmlns="http://www.w3.org/2000/svg">
<path fill-rule="evenodd" clip-rule="evenodd" d="M160 510C143.431 510 130 523.431 130 540V551.84C55.1564 571.698 0 639.908 0 721C0 817.65 78.3502 896 175 896C271.65 896 350 817.65 350 721C350 639.908 294.844 571.698 220 551.84V540C220 523.431 206.569 510 190 510H160Z" fill="#C6A05F"/>
<path d="M172.337 582.83C172.825 578.463 173.069 576.28 173.358 575.864C174.154 574.72 175.846 574.72 176.642 575.864C176.931 576.28 177.175 578.463 177.663 582.83L188.543 680.172C188.661 681.232 188.721 681.762 188.888 682.088C189.335 682.96 190.348 683.379 191.28 683.079C191.629 682.967 192.046 682.634 192.879 681.968L269.403 620.83C272.836 618.087 274.553 616.716 275.051 616.627C276.423 616.38 277.62 617.577 277.373 618.949C277.284 619.447 275.913 621.164 273.17 624.597L212.032 701.121C211.366 701.954 211.033 702.371 210.921 702.72C210.621 703.652 211.04 704.665 211.912 705.112C212.238 705.279 212.768 705.339 213.828 705.457L311.17 716.337C315.537 716.825 317.72 717.069 318.136 717.358C319.28 718.154 319.28 719.846 318.136 720.642C317.72 720.931 315.537 721.175 311.17 721.663L213.828 732.543C212.768 732.661 212.238 732.721 211.912 732.888C211.04 733.335 210.621 734.348 210.921 735.28C211.033 735.629 211.366 736.046 212.032 736.879L273.17 813.403C275.913 816.836 277.284 818.553 277.373 819.051C277.62 820.423 276.423 821.62 275.051 821.373C274.553 821.284 272.836 819.913 269.403 817.17L192.879 756.032C192.046 755.366 191.629 755.033 191.28 754.921C190.348 754.621 189.335 755.04 188.888 755.912C188.721 756.238 188.661 756.768 188.543 757.828L177.663 855.17C177.175 859.537 176.931 861.72 176.642 862.136C175.846 863.28 174.154 863.28 173.358 862.136C173.069 861.72 172.825 859.537 172.337 855.17L161.457 757.828C161.339 756.768 161.279 756.238 161.112 755.912C160.665 755.04 159.652 754.621 158.72 754.921C158.371 755.033 157.954 755.366 157.121 756.032L80.5967 817.17C77.1639 819.913 75.4475 821.284 74.9488 821.373C73.577 821.62 72.3799 820.423 72.6265 819.051C72.7162 818.553 74.0875 816.836 76.83 813.403L137.968 736.879C138.634 736.046 138.967 735.629 139.079 735.28C139.379 734.348 138.96 733.335 138.088 732.888C137.762 732.721 137.232 732.661 136.172 732.543L38.8301 721.663C34.4635 721.175 32.2801 720.931 31.8641 720.642C30.7197 719.846 30.7197 718.154 31.8641 717.358C32.2801 717.069 34.4635 716.825 38.8301 716.337L136.172 705.457C137.232 705.339 137.762 705.279 138.088 705.112C138.96 704.665 139.379 703.652 139.079 702.72C138.967 702.371 138.634 701.954 137.968 701.121L76.83 624.597C74.0874 621.164 72.7162 619.447 72.6265 618.949C72.3799 617.577 73.577 616.38 74.9488 616.627C75.4475 616.716 77.1639 618.087 80.5967 620.83L157.121 681.968C157.954 682.634 158.371 682.967 158.72 683.079C159.652 683.379 160.665 682.96 161.112 682.088C161.279 681.762 161.339 681.232 161.457 680.172L172.337 582.83Z" fill="white"/>
<circle cx="175" cy="495" r="9" fill="#C6A05F"/>
<circle cx="175" cy="522" r="9" fill="#C6A05F"/>
<circle cx="175" cy="441" r="9" fill="#C6A05F"/>
<circle cx="175" cy="468" r="9" fill="#C6A05F"/>
<circle cx="175" cy="387" r="9" fill="#C6A05F"/>
<circle cx="175" cy="414" r="9" fill="#C6A05F"/>
<circle cx="175" cy="333" r="9" fill="#C6A05F"/>
<circle cx="175" cy="360" r="9" fill="#C6A05F"/>
<circle cx="175" cy="279" r="9" fill="#C6A05F"/>
<circle cx="175" cy="306" r="9" fill="#C6A05F"/>
<circle cx="175" cy="225" r="9" fill="#C6A05F"/>
<circle cx="175" cy="252" r="9" fill="#C6A05F"/>
<circle cx="175" cy="171" r="9" fill="#C6A05F"/>
<circle cx="175" cy="198" r="9" fill="#C6A05F"/>
<circle cx="175" cy="117" r="9" fill="#C6A05F"/>
<circle cx="175" cy="144" r="9" fill="#C6A05F"/>
<circle cx="175" cy="63" r="9" fill="#C6A05F"/>
<circle cx="175" cy="90" r="9" fill="#C6A05F"/>
<circle cx="175" cy="9" r="9" fill="#C6A05F"/>
<circle cx="175" cy="36" r="9" fill="#C6A05F"/>
</svg>
