<svg width="350" height="790" viewBox="0 0 350 790" fill="none" xmlns="http://www.w3.org/2000/svg">
<path fill-rule="evenodd" clip-rule="evenodd" d="M160 404C143.431 404 130 417.431 130 434V445.84C55.1564 465.698 0 533.908 0 615C0 711.65 78.3502 790 175 790C271.65 790 350 711.65 350 615C350 533.908 294.844 465.698 220 445.84V434C220 417.431 206.569 404 190 404H160Z" fill="#C6A05F"/>
<path fill-rule="evenodd" clip-rule="evenodd" d="M269.884 530.482C272.018 529.91 273.284 527.717 272.712 525.583C272.14 523.449 269.947 522.183 267.813 522.754L227.495 533.557L241.667 509.012C242.771 507.098 242.116 504.652 240.203 503.547C238.29 502.443 235.843 503.098 234.739 505.012L220.293 530.032L209.29 488.966C208.718 486.832 206.524 485.566 204.391 486.137C202.257 486.709 200.99 488.902 201.562 491.036L213.727 536.435C213.981 537.382 214.554 538.159 215.301 538.679L202.364 561.086L196.537 539.338C195.965 537.204 193.772 535.938 191.638 536.51C189.504 537.081 188.238 539.275 188.81 541.409L195.798 567.489C196.052 568.436 196.625 569.213 197.372 569.733L188.168 585.675L186.223 578.416C185.651 576.282 183.457 575.016 181.324 575.588C179.19 576.16 177.923 578.353 178.495 580.487L181.601 592.078C181.855 593.026 182.429 593.802 183.175 594.323L174.437 609.457L165.737 594.388C166.564 593.87 167.206 593.05 167.479 592.032L170.584 580.441C171.156 578.307 169.89 576.114 167.756 575.542C165.622 574.97 163.429 576.237 162.857 578.37L160.838 585.904L151.506 569.74C152.094 569.233 152.541 568.552 152.756 567.746L159.745 541.666C160.316 539.532 159.05 537.339 156.916 536.767C154.782 536.195 152.589 537.462 152.017 539.595L146.338 560.789L133.562 538.66C134.097 538.165 134.502 537.519 134.704 536.763L146.869 491.365C147.441 489.231 146.174 487.038 144.041 486.466C141.907 485.894 139.713 487.16 139.142 489.294L128.338 529.612L114.167 505.066C113.062 503.153 110.616 502.497 108.703 503.602C106.79 504.707 106.134 507.153 107.239 509.066L121.684 534.086L80.618 523.083C78.4841 522.511 76.2908 523.777 75.719 525.911C75.1473 528.045 76.4136 530.238 78.5475 530.81L123.946 542.975C124.894 543.229 125.853 543.12 126.677 542.734L139.613 565.14L117.865 559.313C115.732 558.741 113.538 560.007 112.966 562.141C112.395 564.275 113.661 566.469 115.795 567.04L141.875 574.028C142.822 574.282 143.782 574.174 144.606 573.788L153.81 589.73L146.551 587.785C144.417 587.213 142.224 588.479 141.652 590.613C141.08 592.747 142.347 594.94 144.48 595.512L156.072 598.618C157.019 598.872 157.979 598.763 158.802 598.377L167.54 613.512H150.14C150.105 612.536 149.715 611.57 148.971 610.825L140.485 602.34C138.923 600.778 136.391 600.778 134.828 602.34C133.266 603.902 133.266 606.435 134.828 607.997L140.343 613.512H121.678C121.534 612.75 121.167 612.022 120.577 611.432L101.485 592.34C99.9232 590.778 97.3905 590.778 95.8284 592.34C94.2663 593.902 94.2663 596.435 95.8284 597.997L111.343 613.512H85.791C85.6295 612.802 85.2722 612.127 84.7193 611.574L51.4853 578.34C49.9232 576.778 47.3905 576.778 45.8284 578.34C44.2663 579.902 44.2663 582.435 45.8284 583.997L75.3431 613.512H47C44.7909 613.512 43 615.302 43 617.512C43 619.721 44.7909 621.512 47 621.512H75.8909L45.8284 651.574C44.2663 653.136 44.2663 655.669 45.8284 657.231C47.3905 658.793 49.9232 658.793 51.4853 657.231L84.7193 623.997C85.413 623.303 85.7986 622.418 85.8762 621.512H111.749L95.8284 637.432C94.2663 638.994 94.2663 641.527 95.8284 643.089C97.3905 644.651 99.9232 644.651 101.485 643.089L120.577 623.997C121.271 623.303 121.656 622.418 121.734 621.512H140.142L134.828 626.825C133.266 628.387 133.266 630.92 134.828 632.482C136.391 634.044 138.923 634.044 140.485 632.482L148.971 623.997C149.664 623.303 150.05 622.418 150.127 621.512H167.603L158.903 636.581C158.041 636.123 157.01 635.978 155.992 636.25L144.401 639.356C142.267 639.928 141.001 642.121 141.572 644.255C142.144 646.389 144.338 647.655 146.471 647.084L154.005 645.065L144.672 661.229C143.94 660.973 143.126 660.927 142.321 661.143L116.241 668.131C114.107 668.703 112.84 670.896 113.412 673.03C113.984 675.164 116.177 676.43 118.311 675.859L139.505 670.18L126.729 692.309C126.033 692.093 125.27 692.066 124.515 692.268L79.1163 704.432C76.9825 705.004 75.7161 707.198 76.2879 709.331C76.8596 711.465 79.053 712.732 81.1869 712.16L121.505 701.357L107.333 725.903C106.229 727.816 106.884 730.262 108.797 731.367C110.71 732.471 113.157 731.816 114.261 729.903L128.707 704.882L139.71 745.948C140.282 748.082 142.476 749.349 144.609 748.777C146.743 748.205 148.01 746.012 147.438 743.878L135.273 698.479C135.019 697.532 134.446 696.755 133.699 696.235L146.636 673.829L152.463 695.576C153.035 697.71 155.228 698.976 157.362 698.405C159.496 697.833 160.762 695.639 160.19 693.506L153.202 667.426C152.948 666.478 152.375 665.701 151.628 665.181L160.832 649.239L162.777 656.498C163.349 658.632 165.542 659.898 167.676 659.326C169.81 658.754 171.077 656.561 170.505 654.427L167.399 642.836C167.145 641.889 166.571 641.112 165.825 640.592L174.563 625.457L183.263 640.526C182.436 641.044 181.794 641.865 181.521 642.882L178.416 654.473C177.844 656.607 179.11 658.8 181.244 659.372C183.378 659.944 185.571 658.678 186.143 656.544L188.162 649.01L197.494 665.175C196.906 665.681 196.459 666.363 196.243 667.168L189.255 693.248C188.684 695.382 189.95 697.575 192.084 698.147C194.218 698.719 196.411 697.453 196.983 695.319L202.662 674.125L215.438 696.254C214.904 696.749 214.498 697.396 214.296 698.151L202.131 743.549C201.559 745.683 202.826 747.877 204.959 748.448C207.093 749.02 209.287 747.754 209.858 745.62L220.662 705.302L234.833 729.848C235.938 731.761 238.384 732.417 240.297 731.312C242.21 730.208 242.866 727.761 241.761 725.848L227.316 700.828L268.382 711.831C270.516 712.403 272.709 711.137 273.281 709.003C273.853 706.869 272.586 704.676 270.453 704.104L225.054 691.94C224.106 691.686 223.147 691.794 222.323 692.18L209.387 669.774L231.135 675.601C233.268 676.173 235.462 674.907 236.034 672.773C236.605 670.639 235.339 668.446 233.205 667.874L207.125 660.886C206.178 660.632 205.218 660.74 204.394 661.126L195.19 645.185L202.449 647.13C204.583 647.701 206.776 646.435 207.348 644.301C207.92 642.167 206.653 639.974 204.52 639.402L192.928 636.296C191.981 636.042 191.021 636.151 190.198 636.537L181.46 621.402H198.86C198.895 622.378 199.285 623.344 200.029 624.089L208.515 632.574C210.077 634.136 212.609 634.136 214.172 632.574C215.734 631.012 215.734 628.479 214.172 626.917L208.657 621.402H227.322C227.466 622.164 227.833 622.892 228.423 623.482L247.515 642.574C249.077 644.136 251.609 644.136 253.172 642.574C254.734 641.012 254.734 638.479 253.172 636.917L237.657 621.402H263.209C263.371 622.113 263.728 622.787 264.281 623.34L297.515 656.574C299.077 658.136 301.609 658.136 303.172 656.574C304.734 655.012 304.734 652.479 303.172 650.917L273.657 621.402H302C304.209 621.402 306 619.612 306 617.402C306 615.193 304.209 613.402 302 613.402H273.109L303.172 583.34C304.734 581.778 304.734 579.245 303.172 577.683C301.609 576.121 299.077 576.121 297.515 577.683L264.281 610.917C263.587 611.611 263.201 612.496 263.124 613.402H237.251L253.172 597.482C254.734 595.92 254.734 593.387 253.172 591.825C251.609 590.263 249.077 590.263 247.515 591.825L228.423 610.917C227.729 611.611 227.344 612.496 227.266 613.402H208.858L214.172 608.089C215.734 606.527 215.734 603.994 214.172 602.432C212.609 600.87 210.077 600.87 208.515 602.432L200.029 610.917C199.336 611.611 198.95 612.496 198.873 613.402H181.397L190.097 598.333C190.959 598.791 191.99 598.936 193.008 598.664L204.599 595.558C206.733 594.986 207.999 592.793 207.427 590.659C206.856 588.525 204.662 587.259 202.529 587.831L194.995 589.849L204.328 573.685C205.06 573.941 205.874 573.987 206.679 573.771L232.759 566.783C234.893 566.211 236.16 564.018 235.588 561.884C235.016 559.75 232.823 558.484 230.689 559.056L209.495 564.734L222.271 542.605C222.967 542.821 223.73 542.849 224.485 542.646L269.884 530.482Z" fill="white"/>
<circle cx="174" cy="387" r="9" fill="#C6A05F"/>
<circle cx="174" cy="414" r="9" fill="#C6A05F"/>
<circle cx="174" cy="333" r="9" fill="#C6A05F"/>
<circle cx="174" cy="360" r="9" fill="#C6A05F"/>
<circle cx="174" cy="279" r="9" fill="#C6A05F"/>
<circle cx="174" cy="306" r="9" fill="#C6A05F"/>
<circle cx="174" cy="225" r="9" fill="#C6A05F"/>
<circle cx="174" cy="252" r="9" fill="#C6A05F"/>
<circle cx="174" cy="171" r="9" fill="#C6A05F"/>
<circle cx="174" cy="198" r="9" fill="#C6A05F"/>
<circle cx="174" cy="117" r="9" fill="#C6A05F"/>
<circle cx="174" cy="144" r="9" fill="#C6A05F"/>
<circle cx="174" cy="63" r="9" fill="#C6A05F"/>
<circle cx="174" cy="90" r="9" fill="#C6A05F"/>
<circle cx="174" cy="9" r="9" fill="#C6A05F"/>
<circle cx="174" cy="36" r="9" fill="#C6A05F"/>
</svg>
