<svg width="350" height="869" viewBox="0 0 350 869" fill="none" xmlns="http://www.w3.org/2000/svg">
<circle cx="173" cy="63" r="9" fill="#C6A05F"/>
<circle cx="173" cy="90" r="9" fill="#C6A05F"/>
<circle cx="173" cy="9" r="9" fill="#C6A05F"/>
<circle cx="173" cy="36" r="9" fill="#C6A05F"/>
<path fill-rule="evenodd" clip-rule="evenodd" d="M160 483C143.431 483 130 496.431 130 513V524.84C55.1564 544.698 0 612.908 0 694C0 790.65 78.3502 869 175 869C271.65 869 350 790.65 350 694C350 612.908 294.844 544.698 220 524.84V513C220 496.431 206.569 483 190 483H160Z" fill="#C6A05F"/>
<circle cx="175" cy="468" r="9" fill="#C6A05F"/>
<circle cx="175" cy="495" r="9" fill="#C6A05F"/>
<circle cx="175" cy="414" r="9" fill="#C6A05F"/>
<circle cx="175" cy="441" r="9" fill="#C6A05F"/>
<circle cx="175" cy="360" r="9" fill="#C6A05F"/>
<circle cx="175" cy="387" r="9" fill="#C6A05F"/>
<circle cx="175" cy="306" r="9" fill="#C6A05F"/>
<circle cx="175" cy="333" r="9" fill="#C6A05F"/>
<circle cx="175" cy="252" r="9" fill="#C6A05F"/>
<circle cx="175" cy="279" r="9" fill="#C6A05F"/>
<circle cx="175" cy="198" r="9" fill="#C6A05F"/>
<circle cx="175" cy="225" r="9" fill="#C6A05F"/>
<circle cx="175" cy="144" r="9" fill="#C6A05F"/>
<circle cx="175" cy="171" r="9" fill="#C6A05F"/>
<circle cx="175" cy="90" r="9" fill="#C6A05F"/>
<circle cx="175" cy="117" r="9" fill="#C6A05F"/>
<circle cx="175" cy="690" r="140" stroke="white" stroke-width="20"/>
<circle cx="175" cy="690" r="100" stroke="white" stroke-width="20"/>
<circle cx="175" cy="690" r="50" stroke="white" stroke-width="20"/>
</svg>
